<svg clip-rule="evenodd" fill-rule="evenodd" viewBox="0 0 560 400" xmlns="http://www.w3.org/2000/svg"><path d="m0 119.15h559.676v161.103h-559.676z" fill="none"/><path d="m26.088 145.515h51.555l-.004 51.555h-51.551z" fill="#f65314"/><path d="m82.907 145.515h51.555c0 17.185.003 34.37-.003 51.555-17.182-.003-34.367 0-51.549 0-.006-17.185-.003-34.37-.003-51.555z" fill="#7fbb41"/><path d="m490.997 165.159c4.753-3.093 10.894-3.382 16.25-1.908.047 3.184.006 6.37.021 9.555-2.545-1.12-5.54-1.851-8.217-.752-2.125.843-3.389 3.023-3.719 5.202-.399 2.765-.14 5.567-.208 8.348 5.438.012 10.875.003 16.312.006.041-3.53-.043-7.063.047-10.593 3.697-1.051 7.353-2.232 11.032-3.34.031 4.65-.043 9.304.041 13.958 3.675-.053 7.354-.012 11.032-.025v9.055c-3.691-.153-7.385-.042-11.075-.054.015 5.206.002 10.411.005 15.618.059 2.883-.154 5.781.183 8.655.204 1.694.821 3.571 2.408 4.447 2.661 1.489 6.036.839 8.479-.796v9.143c-3.187 1.384-6.747 1.806-10.193 1.561-3.271-.242-6.657-1.43-8.791-4.032-2.465-2.938-3.099-6.917-3.149-10.639-.028-7.988.003-15.977-.012-23.969-5.441-.004-10.881-.006-16.319.003-.006 12.537-.003 25.075-.003 37.613h-11.15c0-12.536-.016-25.066.006-37.6-2.586-.05-5.174.012-7.759-.041.009-2.975.021-5.954-.007-8.933 2.574-.059 5.15-.034 7.73-.015.188-3.958-.415-8.029.768-11.884.999-3.48 3.223-6.62 6.288-8.583zm-238.726.65c2.248-.341 4.681.427 6.171 2.186 1.747 1.926 2.069 4.991.774 7.243-1.431 2.538-4.632 3.718-7.422 3.109-2.895-.52-5.307-3.212-5.178-6.212-.083-3.158 2.558-5.973 5.655-6.327zm-85.452 1.381h16.216c5.047 12.817 10.131 25.619 15.185 38.435 1.291 3.206 2.499 6.447 3.852 9.627 6.493-16.014 13.079-31.988 19.522-48.025 5.2-.084 10.401-.019 15.603-.031-.012 21.672-.006 43.343-.002 65.015-3.753-.009-7.503.032-11.253-.022.04-15.992-.003-31.985.019-47.981.006-.719-.019-1.438-.069-2.155-.22.334-.414.681-.584 1.041-6.445 16.369-13.012 32.693-19.418 49.079-2.669.097-5.341.007-8.014.049-6.647-16.369-13.212-32.777-19.826-49.16-.174-.341-.359-.672-.561-.99-.136 7.006-.021 14.019-.058 21.027.002 9.704-.006 19.408.002 29.112-3.538.009-7.077 0-10.614.004-.003-21.676-.006-43.351 0-65.025zm116.138 18.377c5.38-1.533 11.184-1.471 16.562.049 1.109.31 2.182.74 3.181 1.326-.063 3.551 0 7.106-.035 10.661-3.596-2.747-8.156-4.487-12.726-3.911-3.63.328-7.091 2.211-9.261 5.143-2.791 3.635-3.435 8.462-2.954 12.909.359 3.48 1.798 6.958 4.505 9.265 2.811 2.498 6.752 3.383 10.431 3.105 3.636-.418 7.067-1.958 10.005-4.107.031 3.366-.016 6.732.025 10.098-4.559 2.713-10.023 3.412-15.241 3.157-5.338-.283-10.661-2.305-14.525-6.058-4.199-4.047-6.478-9.819-6.748-15.599-.272-6.011.951-12.281 4.41-17.3 2.898-4.283 7.432-7.314 12.371-8.738zm121.796-.709c5.156-.908 10.553-.242 15.432 1.607.007 3.419 0 6.833.003 10.249-3.409-2.344-7.574-3.605-11.711-3.459-2.083.081-4.374.964-5.325 2.945-.756 1.96-.232 4.53 1.617 5.704 3.16 2.115 6.932 3.013 10.208 4.907 2.579 1.45 5.081 3.344 6.389 6.076 2.455 5.115 1.415 11.875-2.903 15.69-4.12 3.851-10.056 4.916-15.515 4.712-3.877-.251-7.772-1.016-11.336-2.602.016-3.594-.022-7.186.018-10.778 2.998 2.177 6.456 3.734 10.116 4.366 2.549.414 5.321.434 7.695-.706 2.273-1.13 2.681-4.36 1.332-6.336-1.264-1.523-3.119-2.361-4.868-3.185-3.285-1.477-6.738-2.713-9.623-4.926-2.029-1.583-3.565-3.812-4.165-6.327-.892-3.706-.614-7.883 1.541-11.122 2.462-3.775 6.738-6.038 11.095-6.815zm-77.122 1.468c3.077-1.849 6.988-2.004 10.348-.873-.015 3.719 0 7.436-.009 11.155-2.199-1.423-4.942-2.034-7.536-1.77-3.166.359-5.674 2.789-6.973 5.577-1.413 2.95-1.679 6.287-1.59 9.514 0 7.428.004 14.857 0 22.286h-10.992c-.009-15.526.013-31.054-.009-46.58 3.669-.047 7.339-.028 11.008-.01-.015 2.667 0 5.332-.009 8.002 1.192-2.901 2.966-5.719 5.762-7.302zm-80.002-.701c3.697-.015 7.398-.051 11.094.019-.043 15.524-.002 31.048-.018 46.571h-11.07c-.009-15.529.004-31.058-.006-46.589zm110.87-.86c5.351-.681 10.995-.377 15.962 1.883 4.31 1.944 7.803 5.539 9.738 9.844 2.064 4.58 2.567 9.728 2.217 14.698-.344 4.851-1.867 9.713-4.902 13.568-3.105 4.094-7.786 6.868-12.8 7.899-4.286.892-8.769.888-13.055-.012-5.127-1.097-9.874-4.072-12.881-8.401-3.529-5.016-4.532-11.394-4.084-17.405.303-5.1 1.889-10.24 5.147-14.24 3.567-4.481 9.039-7.125 14.658-7.834zm3.325 8.85c-2.665.148-5.359 1.05-7.335 2.894-2.725 2.469-3.97 6.147-4.307 9.723-.372 3.933-.103 8.079 1.694 11.664 1.396 2.784 3.963 4.971 6.988 5.766 2.973.771 6.208.706 9.088-.4 2.461-.959 4.412-2.985 5.478-5.381 1.609-3.555 1.768-7.552 1.57-11.388-.276-3.507-1.272-7.181-3.85-9.714-2.408-2.437-5.975-3.384-9.326-3.164zm85.545-8.866c5.564-.689 11.472-.316 16.55 2.249 4.429 2.214 7.862 6.215 9.576 10.84 1.342 3.539 1.813 7.36 1.734 11.128.01 5.629-1.51 11.407-5.043 15.872-3.307 4.323-8.366 7.132-13.708 8.014-5.223.845-10.742.626-15.705-1.328-5.028-1.978-9.208-6.017-11.327-10.99-2.207-5.068-2.44-10.772-1.752-16.187.721-5.417 3.174-10.711 7.354-14.312 3.425-3.006 7.834-4.709 12.321-5.286zm3.01 8.875c-3.085.173-6.144 1.502-8.138 3.904-2.186 2.574-3.125 5.97-3.379 9.28-.262 3.418 0 6.958 1.322 10.153 1.1 2.682 3.188 5.013 5.88 6.153 2.497 1.075 5.309 1.266 7.977.867 2.487-.366 4.896-1.554 6.516-3.505 1.606-1.941 2.454-4.388 2.881-6.84.54-3.292.546-6.682-.092-9.958-.566-2.793-1.802-5.567-4.035-7.419-2.42-2.127-5.783-2.854-8.932-2.635z" fill="#787878"/><path d="m26.088 202.331c17.185.006 34.37-.002 51.555.006.003 17.185 0 34.367 0 51.552h-51.555z" fill="#00a1f1"/><path d="m82.91 202.337c17.182-.006 34.367-.003 51.552-.003v51.555h-51.555c.003-17.185-.003-34.37.003-51.552z" fill="#fb0"/></svg>