<svg xmlns="http://www.w3.org/2000/svg" xmlns:xlink="http://www.w3.org/1999/xlink" width="296pt" height="172" viewBox="0 0 295.52 129"><g id="graph0" class="graph" transform="scale(1 1) rotate(0) translate(4 125)"><title>g</title><polygon fill="#fff" stroke="transparent" points="-4 4 -4 -125 291.52 -125 291.52 4 -4 4"/><g id="node1" class="node"><title>dataset (version_1)</title><polygon fill="none" stroke="#000" points="0 -.5 0 -120.5 166.62 -120.5 166.62 -.5 0 -.5"/><text x="83.31" y="-103.7" font-family="Times,serif" font-size="16" text-anchor="middle">my_dataset (version_1)</text><polyline fill="none" stroke="#000" points="0 -96.5 166.62 -96.5"/><text x="83.31" y="-79.7" font-family="Times,serif" font-size="16" text-anchor="middle">CHUNK 0</text><polyline fill="none" stroke="#000" points="0 -72.5 166.62 -72.5"/><text x="83.31" y="-55.7" font-family="Times,serif" font-size="16" text-anchor="middle">CHUNK 1</text><polyline fill="none" stroke="#000" points="0 -48.5 166.62 -48.5"/><text x="83.31" y="-31.7" font-family="Times,serif" font-size="16" text-anchor="middle">...</text><polyline fill="none" stroke="#000" points="0 -24.5 166.62 -24.5"/><text x="83.31" y="-7.7" font-family="Times,serif" font-size="16" text-anchor="middle">CHUNK n</text></g><g id="node2" class="node"><title>raw_data</title><polygon fill="none" stroke="#000" points="202.62 -.5 202.62 -120.5 287.52 -120.5 287.52 -.5 202.62 -.5"/><text x="245.07" y="-103.7" font-family="Times,serif" font-size="16" text-anchor="middle">raw_data</text><polyline fill="none" stroke="#000" points="202.62 -96.5 287.52 -96.5"/><text x="245.07" y="-79.7" font-family="Times,serif" font-size="16" text-anchor="middle">CHUNK 0</text><polyline fill="none" stroke="#000" points="202.62 -72.5 287.52 -72.5"/><text x="245.07" y="-55.7" font-family="Times,serif" font-size="16" text-anchor="middle">CHUNK 1</text><polyline fill="none" stroke="#000" points="202.62 -48.5 287.52 -48.5"/><text x="245.07" y="-31.7" font-family="Times,serif" font-size="16" text-anchor="middle">...</text><polyline fill="none" stroke="#000" points="202.62 -24.5 287.52 -24.5"/><text x="245.07" y="-7.7" font-family="Times,serif" font-size="16" text-anchor="middle">CHUNK n</text></g><g id="edge1" class="edge"><title>dataset (version_1):f0-&gt;raw_data:f0</title><path fill="none" stroke="#000" d="M166.62,-84.5C178.62,-84.5 183.88,-84.5 192.5,-84.5"/><polygon fill="#000" stroke="#000" points="192.63 -88 202.62 -84.5 192.62 -81 192.63 -88"/></g><g id="edge2" class="edge"><title>dataset (version_1):f1-&gt;raw_data:f1</title><path fill="none" stroke="#000" d="M166.62,-60.5C178.62,-60.5 183.88,-60.5 192.5,-60.5"/><polygon fill="#000" stroke="#000" points="192.63 -64 202.62 -60.5 192.62 -57 192.63 -64"/></g><g id="edge3" class="edge"><title>dataset (version_1):fdot-&gt;raw_data:fdot</title><path fill="none" stroke="#000" d="M166.62,-36.5C178.62,-36.5 183.88,-36.5 192.5,-36.5"/><polygon fill="#000" stroke="#000" points="192.63 -40 202.62 -36.5 192.62 -33 192.63 -40"/></g><g id="edge4" class="edge"><title>dataset (version_1):fn-&gt;raw_data:fn</title><path fill="none" stroke="#000" d="M166.62,-12.5C178.62,-12.5 183.88,-12.5 192.5,-12.5"/><polygon fill="#000" stroke="#000" points="192.63 -16 202.62 -12.5 192.62 -9 192.63 -16"/></g></g></svg>